<?xml version="1.0" encoding="utf-8"?>
<!-- Generator: Adobe Illustrator 16.0.0, SVG Export Plug-In . SVG Version: 6.00 Build 0)  -->
<!DOCTYPE svg PUBLIC "-//W3C//DTD SVG 1.1//EN" "http://www.w3.org/Graphics/SVG/1.1/DTD/svg11.dtd">
<svg version="1.1" id="Ebene_1" xmlns="http://www.w3.org/2000/svg" xmlns:xlink="http://www.w3.org/1999/xlink" x="0px" y="0px"
	  viewBox="0 0 3000 3000" enable-background="new 0 0 3000 3000" xml:space="preserve">
<g>
	<path d="M2825.133,888.85H2196.97v213.789h183.828v737.85h261.016v-737.85h183.319V888.85L2825.133,888.85z M2134.51,1839.473
		h-261.014V888.85h261.014V1839.473L2134.51,1839.473z M1829.823,1839.473h-289.961l-344.804-370.196v-212.264l334.14-369.181
		h299.103l-384.923,478.866L1829.823,1839.473L1829.823,1839.473z"/>
	<path d="M1132.091,1839.473L1132.091,1839.473L1132.091,1839.473z"/>
	<path d="M1132.091,1839.473L1132.091,1839.473L1132.091,1839.473z"/>
	<path fill="#009781" d="M388.653,1236.702c-49.765,60.429-92.929,126.951-125.937,198.554l869.374,404.218L388.653,1236.702
		L388.653,1236.702z"/>
	<path fill="#009781" d="M1132.091,1839.473L726.856,976.702c-72.109,33.006-138.633,74.141-199.063,122.89L1132.091,1839.473
		L1132.091,1839.473L1132.091,1839.473z"/>
	<path d="M1132.091,1839.473l1.016-950.623c-3.047,0-5.077,0-7.618,0c-77.188,0-152.344,9.649-224.453,27.42L1132.091,1839.473
		L1132.091,1839.473L1132.091,1839.473z"/>
	<polygon points="1132.091,1839.473 1132.091,1839.473 1132.091,1839.473 	"/>
	<polygon points="1132.091,1839.473 1132.091,1839.473 1132.091,1839.473 	"/>
	<path fill="#009781" d="M200.256,1606.896c-19.297,74.139-29.453,152.342-30.469,232.576h962.304L200.256,1606.896
		L200.256,1606.896z"/>
	<polygon points="169.279,2075.605 186.036,2075.605 186.036,2017.715 238.851,2075.605 263.732,2075.605 203.811,2013.654 
		259.162,1957.793 236.819,1957.793 186.036,2009.59 186.036,1957.793 169.279,1957.793 	"/>
	<path d="M283.537,2009.082c2.031-2.031,4.57-3.555,7.616-4.57c2.539-1.523,5.586-2.539,8.634-3.049
		c3.047-0.506,6.093-1.016,9.141-1.016c5.078,0,9.649,1.016,12.695,2.539c3.046,1.521,5.585,4.064,6.602,7.617
		c1.523,3.555,2.031,7.617,2.031,12.695c-2.031,0-4.063,0-5.586,0c-2.03,0-3.556,0-5.585,0c-2.032,0-3.556,0-5.586,0
		c-3.554,0-6.602,0.508-10.664,1.016c-3.555,0.508-7.108,1.525-10.662,3.047c-3.556,1.523-6.603,3.049-9.649,5.078
		c-3.048,2.031-5.077,5.078-6.602,8.125c-1.523,3.047-2.539,7.109-2.539,11.172c0,6.094,1.523,11.172,4.063,15.234
		c2.539,4.061,6.601,7.107,11.171,8.633c4.571,2.033,10.155,2.539,16.25,2.539c3.554,0,7.109-0.506,9.648-1.523
		c3.048-1.016,5.586-2.031,7.617-3.047c2.032-1.523,4.063-3.047,5.586-4.063c1.523-1.525,2.539-3.047,3.555-4.063h0.509v11.172
		h15.234c0-1.016,0-2.033-0.508-3.557c0-1.521,0-3.047,0-5.584c0-2.031,0-5.078,0-8.127v-35.545c0-7.619-1.017-14.219-3.556-19.805
		c-2.539-5.078-6.094-9.141-11.171-12.188c-5.078-2.539-11.68-4.064-19.806-4.064c-5.586,0-10.664,1.016-15.234,2.031
		c-4.569,1.523-9.141,3.557-13.203,6.094v13.207H283.537z M330.256,2042.09c0,4.57-1.016,8.125-2.54,11.68
		c-2.031,3.555-4.571,6.094-8.125,8.125c-3.555,2.031-8.125,3.047-13.203,3.047c-2.031,0-3.555-0.508-5.585-1.016
		c-2.031-0.508-3.556-1.523-5.078-2.539s-3.046-2.539-4.062-4.57c-1.016-1.523-1.523-3.555-1.523-6.094
		c0-3.047,1.016-5.586,2.539-7.617s3.556-3.555,5.585-5.076c2.54-1.016,5.079-2.033,7.618-2.539c2.538-0.51,5.585-1.016,7.617-1.016
		c2.539,0,4.571-0.51,6.602-0.51c1.523,0,3.556,0,5.077,0c1.523,0,3.556,0,5.078,0V2042.09L330.256,2042.09z"/>
	<path d="M371.896,2075.605h15.741v-39.102c0-7.111,1.016-13.711,3.048-18.791c2.031-5.078,4.571-9.141,8.125-12.188
		c3.554-3.049,7.617-4.064,12.187-4.57c1.524,0,3.047,0,4.571,0.508c1.522,0,3.047,0.508,4.57,1.014v-14.217
		c-1.017,0-2.032-0.508-3.048-0.508s-2.031-0.508-3.046-0.508c-1.016,0-2.54,0-4.063,0c-3.047,0-6.093,0.508-9.141,2.031
		c-3.048,1.525-5.586,3.047-7.617,5.586c-2.539,2.541-4.062,5.078-5.586,8.125h-0.508v-13.203h-14.727v85.82h-0.507V2075.605z"/>
	<polygon points="438.928,2075.605 454.67,2075.605 454.67,1948.652 438.928,1948.652 	"/>
	<path d="M475.489,2073.066c3.556,2.031,7.617,3.047,11.68,4.063c4.063,0.508,8.125,1.016,12.187,1.016
		c4.063,0,7.617-0.506,11.172-1.521s6.603-2.541,9.65-5.078c3.047-2.031,5.077-5.078,6.601-8.633
		c1.523-3.557,2.54-7.619,2.54-12.189c0-4.063-0.509-7.109-2.032-10.154c-1.523-2.539-3.046-5.078-5.585-7.109
		c-2.031-2.031-4.57-3.557-7.109-5.078c-2.54-1.521-5.078-2.537-8.125-3.553c-2.54-1.018-5.078-2.541-7.11-3.557
		c-2.031-1.523-4.063-3.049-5.585-4.57c-1.523-1.521-2.031-4.063-2.031-6.094c0-2.539,0.508-4.57,2.031-6.094
		c1.522-1.521,3.047-2.537,5.585-3.555c2.032-1.016,5.078-1.016,7.618-1.016c1.014,0,2.029,0,3.555,0.51
		c1.522,0.506,3.046,0.506,4.569,1.016c1.524,0.506,3.048,1.016,4.571,1.521c1.524,0.508,2.54,1.016,3.556,1.523l1.522-13.711
		c-3.047-1.016-6.094-1.523-9.649-2.539c-3.047-0.506-6.601-1.016-10.155-1.016c-4.063,0-8.125,0.508-12.187,1.523
		c-3.556,1.016-7.109,2.539-9.649,5.078c-2.539,2.031-5.077,5.078-6.601,8.125c-1.523,3.555-2.54,7.109-2.54,11.68
		c0,3.555,0.508,6.602,2.032,9.141c1.523,2.539,3.047,4.57,5.585,6.602c2.031,2.031,4.571,3.555,7.109,5.076
		c2.539,1.523,5.078,2.539,8.125,4.064c2.538,1.016,5.078,2.539,7.109,4.063c2.032,1.523,4.063,3.047,5.586,4.57
		c1.522,1.521,2.03,3.553,2.03,5.586c0,2.539-0.508,4.063-1.523,6.094c-1.017,1.521-2.032,3.047-4.062,4.063
		c-1.524,1.016-3.556,1.521-5.078,2.031c-2.032,0.508-3.556,0.508-5.586,0.508c-1.522,0-3.554,0-5.585-0.508
		c-2.54-0.508-4.571-1.016-7.11-2.031c-2.538-1.016-4.569-2.031-7.109-3.555L475.489,2073.066L475.489,2073.066z"/>
	<path d="M548.106,2075.605h15.742v-39.102c0-7.111,1.016-13.711,3.047-18.791c2.033-5.078,4.57-9.141,8.126-12.188
		c3.554-3.049,7.616-4.064,12.188-4.57c1.522,0,3.047,0,4.57,0.508c1.522,0,3.048,0.508,4.569,1.014v-14.217
		c-1.016,0-2.031-0.508-3.047-0.508s-2.031-0.508-3.047-0.508s-2.539,0-4.064,0c-3.045,0-6.091,0.508-9.138,2.031
		c-3.049,1.525-5.589,3.047-7.618,5.586c-2.539,2.541-4.063,5.078-5.587,8.125h-0.506v-13.203h-14.727v85.82h-0.509V2075.605z"/>
	<path d="M689.278,1989.277h-15.742v40.119c0,5.076-0.508,10.154-1.523,14.217c-1.016,4.572-2.538,8.127-4.57,11.174
		s-5.077,5.584-8.123,7.109c-3.556,1.521-7.11,2.537-11.68,2.537c-4.571-0.506-8.125-1.521-11.173-4.063
		c-2.538-2.539-4.569-5.586-5.585-10.156s-1.524-10.156-1.524-16.758v-44.688h-15.742v51.287c0,7.617,1.016,14.219,3.556,19.807
		c2.538,5.586,6.092,9.648,10.662,12.693c4.57,3.049,10.664,4.57,18.281,4.57c4.063,0,8.125-0.506,11.68-2.031
		c3.556-1.521,7.109-3.047,9.648-5.586c3.048-2.539,5.078-5.076,6.604-8.633h0.506v13.711h15.235v-85.313h-0.509V1989.277z"/>
	<path d="M715.177,2075.605h15.741v-40.117c0-5.078,0.509-10.158,1.524-14.221c1.016-4.57,2.538-8.125,4.57-11.17
		c2.031-3.049,5.077-5.59,8.125-7.111c3.047-1.523,7.108-2.537,11.679-2.537c4.569,0.506,8.125,1.521,11.172,4.063
		c2.539,2.539,4.57,5.586,5.586,10.156c1.017,4.568,1.522,10.156,1.522,16.758v44.688h15.742v-51.289
		c0-7.617-1.016-14.219-3.554-19.805c-2.031-5.586-6.093-9.648-10.663-12.695c-4.571-3.047-10.664-4.57-18.282-4.57
		c-6.093,0-11.68,1.016-16.249,3.555c-4.57,2.539-8.633,6.094-11.679,10.664h-0.507v-52.814h-15.742v126.445h1.014V2075.605z"/>
	<path d="M883.77,2056.309c-1.016,1.016-2.538,1.521-4.569,2.537c-2.031,1.018-4.064,2.033-6.602,3.049
		c-2.54,1.016-5.078,1.521-7.617,2.031c-2.539,0.506-5.588,1.016-8.125,1.016c-4.064,0-7.617-0.508-10.664-2.031
		c-3.556-1.523-6.603-3.555-9.141-6.094s-4.57-5.586-6.095-9.141c-1.521-3.555-2.031-7.617-2.537-11.68h61.952
		c0-7.109-0.509-13.203-2.031-19.295c-1.524-6.094-3.556-11.174-6.603-15.236c-3.047-4.568-7.108-7.617-11.68-10.154
		c-5.077-2.539-11.171-3.557-18.28-3.557c-6.093,0-11.679,1.018-16.758,3.049c-5.08,2.031-9.142,5.078-12.695,9.141
		s-6.093,8.633-8.124,13.711c-2.032,5.078-3.049,11.174-3.049,17.773c0,7.109,1.016,13.203,2.54,19.295
		c2.031,5.586,4.569,10.664,8.125,14.729c3.555,4.063,8.123,7.109,13.711,9.648c5.586,2.031,12.187,3.555,19.804,3.555
		c4.571,0,8.633-0.508,12.188-1.016c3.554-0.508,6.093-1.523,8.634-2.031c2.537-1.016,4.569-1.523,6.601-2.539v-16.758h1.015
		V2056.309z M828.926,2024.316c0.509-3.047,1.018-5.586,2.031-8.633c1.018-3.049,2.54-5.586,4.064-7.617
		c2.031-2.539,4.063-4.064,7.109-5.588c3.047-1.521,6.092-2.031,10.155-2.031c3.556,0,6.603,0.508,9.142,2.031
		c2.537,1.016,5.077,3.047,6.601,5.078c2.031,2.031,3.048,4.57,4.063,7.617s1.523,6.094,1.523,9.141h-44.689V2024.316z"/>
	<path d="M910.685,2075.605h15.742v-39.102c0-7.111,1.016-13.711,3.047-18.791c2.031-5.078,4.57-9.141,8.124-12.188
		c3.556-3.049,7.618-4.064,12.189-4.57c1.521,0,3.047,0,4.568,0.508c1.524,0,3.049,0.508,4.571,1.014v-14.217
		c-1.017,0-2.031-0.508-3.047-0.508s-2.031-0.508-3.047-0.508c-1.018,0-2.54,0-4.064,0c-3.047,0-6.093,0.508-9.141,2.031
		c-3.047,1.525-5.586,3.047-7.617,5.586c-2.538,2.541-4.063,5.078-5.585,8.125h-0.509v-13.203h-15.233L910.685,2075.605
		L910.685,2075.605z"/>
	<polygon points="1024.434,2075.605 1041.192,2075.605 1041.192,1957.793 1024.434,1957.793 	"/>
	<path d="M1069.121,2075.605h15.742v-40.117c0-5.078,0.506-10.158,1.522-14.221c1.017-4.57,2.539-8.125,4.57-11.17
		c2.031-3.049,5.079-5.59,8.124-7.111c3.048-1.523,7.11-2.537,11.68-2.537c4.571,0.506,8.124,1.521,11.173,4.063
		c2.538,2.539,4.569,5.586,5.585,10.156c1.017,4.568,1.523,10.156,1.523,16.758v44.688h15.743v-51.289
		c0-7.617-1.016-14.219-3.556-19.805c-2.031-5.586-6.093-9.648-10.663-12.695s-10.663-4.57-18.281-4.57
		c-4.063,0-8.125,0.508-11.679,2.031c-3.555,1.016-7.109,3.047-9.649,5.586c-3.047,2.539-5.077,5.078-6.603,8.635h-0.506v-13.711
		h-15.234v85.313h0.508V2075.605z"/>
	<path d="M1164.082,2073.066c3.555,2.031,7.617,3.047,11.679,4.063c4.063,0.508,8.125,1.016,12.189,1.016
		c4.062,0,7.616-0.506,11.171-1.521c3.554-1.016,6.602-2.541,9.648-5.078c3.047-2.031,5.077-5.078,6.601-8.633
		c1.524-3.557,2.54-7.619,2.54-12.189c0-4.063-0.509-7.109-2.031-10.154c-1.524-2.539-3.047-5.078-5.586-7.109
		c-2.032-2.031-4.57-3.557-7.109-5.078c-2.54-1.521-5.077-2.537-8.125-3.553c-2.538-1.018-5.077-2.541-7.108-3.557
		c-2.031-1.523-4.063-3.049-5.586-4.57s-2.032-4.063-2.032-6.094c0-2.539,0.508-4.57,2.032-6.094
		c1.522-1.521,3.047-2.537,5.586-3.555c2.031-1.016,5.078-1.016,7.618-1.016c1.016,0,2.031,0,3.553,0.51
		c1.522,0.506,3.048,0.506,4.571,1.016c1.522,0.506,3.047,1.016,4.571,1.521c1.521,0.508,2.537,1.016,3.553,1.523l1.522-13.711
		c-3.047-1.016-6.093-1.523-9.649-2.539c-3.047-0.506-6.602-1.016-10.154-1.016c-4.063,0-8.125,0.508-12.189,1.523
		c-3.554,1.016-7.106,2.539-9.647,5.078c-2.539,2.031-5.079,5.078-6.602,8.125c-1.524,3.555-2.54,7.109-2.54,11.68
		c0,3.555,0.509,6.602,2.031,9.141c1.524,2.539,3.047,4.57,5.587,6.602c2.031,2.031,4.57,3.555,7.108,5.076
		c2.539,1.523,5.077,2.539,8.126,4.064c2.538,1.016,5.077,2.539,7.108,4.063c2.032,1.523,4.063,3.047,5.585,4.57
		c1.524,1.521,2.033,3.553,2.033,5.586c0,2.539-0.508,4.063-1.524,6.094c-1.015,1.521-2.03,3.047-4.062,4.063
		c-1.524,1.016-3.556,1.521-5.078,2.031c-2.031,0.508-3.555,0.508-5.586,0.508c-1.524,0-3.556,0-5.587-0.508
		s-4.569-1.016-7.109-2.031c-2.539-1.016-4.57-2.031-7.107-3.555V2073.066L1164.082,2073.066z"/>
	<path d="M1281.895,1989.277h-22.851v-24.883l-15.742,5.078v19.805h-19.299v12.695h19.297v50.273c0,5.586,1.017,10.664,3.048,14.221
		c2.031,3.553,5.077,6.6,9.14,8.123s8.634,2.539,14.22,2.539c2.54,0,5.077-0.506,7.109-1.016c2.539-0.508,4.57-1.016,6.092-1.523
		v-13.709c-1.015,1.016-2.539,1.521-4.57,2.031c-2.031,0.506-4.063,1.016-6.601,1.016c-2.539,0-4.571-0.51-6.603-2.031
		c-2.03-1.016-3.555-3.049-4.57-5.078c-1.016-2.541-2.03-5.078-2.03-8.633v-47.229h22.851v-11.678h0.51V1989.277z"/>
	<path d="M1303.223,2075.605h15.742v-86.328h-15.742V2075.605L1303.223,2075.605z M1319.979,1952.207h-17.773v17.773h17.773
		V1952.207L1319.979,1952.207z"/>
	<path d="M1393.105,1989.277h-22.853v-24.883l-15.742,5.078v19.805h-19.296v12.695h19.296v50.273c0,5.586,1.016,10.664,3.047,14.221
		c2.031,3.553,5.079,6.6,9.142,8.123c4.063,1.523,8.633,2.539,14.219,2.539c2.539,0,5.077-0.506,7.11-1.016
		c2.537-0.508,4.568-1.016,6.093-1.523v-13.709c-1.016,1.016-2.539,1.521-4.57,2.031c-2.031,0.506-4.063,1.016-6.603,1.016
		c-2.538,0-4.569-0.51-6.601-2.031c-2.033-1.016-3.556-3.049-4.57-5.078c-1.016-2.541-2.031-5.078-2.031-8.633v-47.229h22.851
		v-11.678h0.509V1989.277z"/>
	<path d="M1488.573,1989.277h-15.742v40.119c0,5.076-0.506,10.154-1.523,14.217c-1.014,4.572-2.538,8.127-4.57,11.174
		c-2.029,3.047-5.077,5.584-8.123,7.109c-3.556,1.521-7.11,2.537-11.68,2.537c-4.57-0.506-8.126-1.521-11.173-4.063
		c-2.538-2.539-4.569-5.586-5.585-10.156s-1.523-10.156-1.523-16.758v-44.688h-15.742v51.287c0,7.617,1.015,14.219,3.555,19.807
		c2.538,5.586,6.093,9.648,10.664,12.693c4.568,3.047,10.662,4.57,18.279,4.57c4.063,0,8.125-0.506,11.68-2.031
		c3.556-1.521,7.109-3.047,9.648-5.586c3.049-2.539,5.078-5.076,6.603-8.633h0.507v13.711h15.235v-85.313h-0.509V1989.277z"/>
	<path d="M1560.682,1989.277h-22.851v-24.883l-15.742,5.078v19.805h-19.296v12.695h19.296v50.273c0,5.586,1.017,10.664,3.049,14.221
		c2.031,3.553,5.077,6.6,9.14,8.123s8.634,2.539,14.219,2.539c2.539,0,5.077-0.506,7.11-1.016c2.538-0.508,4.569-1.016,6.093-1.523
		v-13.709c-1.018,1.016-2.54,1.521-4.571,2.031c-2.031,0.506-4.063,1.016-6.602,1.016c-2.538,0-4.569-0.51-6.601-2.031
		c-2.032-1.016-3.556-3.049-4.571-5.078c-1.015-2.541-2.031-5.078-2.031-8.633v-47.229h22.851v-11.678h0.508V1989.277z"/>
	<path d="M1636.854,2075.605h15.742v-73.633h22.852v-12.695h-22.852v-9.141c0-3.047,0-5.586,0.508-8.125
		c0.507-2.537,1.016-4.57,2.031-6.602s2.54-3.047,4.571-4.063c2.03-1.016,4.569-1.523,8.123-1.523c1.523,0,2.539,0,4.063,0.508
		c1.521,0,2.539,0.506,3.555,0.506l0.507-12.693c-1.522,0-3.047-0.508-5.077-0.508c-1.522,0-3.554-0.506-5.585-0.506
		c-6.095,0-10.666,1.016-14.22,2.537c-3.555,1.523-6.603,4.064-8.634,7.109c-2.031,3.047-3.555,6.602-4.57,11.172
		c-1.016,4.063-1.016,9.141-1.016,14.221v8.123h-20.313v12.695h20.313L1636.854,2075.605L1636.854,2075.605z"/>
	<path d="M1707.948,1976.074h15.742v-16.758h-15.742V1976.074L1707.948,1976.074z M1735.37,1976.074h15.742v-16.758h-15.742
		V1976.074L1735.37,1976.074z M1767.87,1989.277h-15.742v40.119c0,5.076-0.507,10.154-1.524,14.217
		c-1.014,4.572-2.537,8.127-4.569,11.174s-5.077,5.584-8.124,7.109c-3.555,1.521-7.109,2.537-11.679,2.537
		c-4.571-0.506-8.125-1.521-11.173-4.063c-2.538-2.539-4.569-5.586-5.588-10.156c-1.014-4.57-1.521-10.156-1.521-16.758v-44.688
		h-15.742v51.287c0,7.617,1.016,14.219,3.555,19.807c2.538,5.586,6.092,9.648,10.663,12.693c4.571,3.049,10.664,4.57,18.281,4.57
		c4.063,0,8.125-0.506,11.68-2.031c3.556-1.521,7.109-3.047,9.648-5.586c3.047-2.539,5.078-5.076,6.601-8.633h0.509v13.711h15.233
		v-85.313h-0.507V1989.277z"/>
	<path d="M1793.768,2075.605h15.742v-39.102c0-7.111,1.016-13.711,3.049-18.791c2.031-5.078,4.568-9.141,8.124-12.188
		c3.554-3.049,7.618-4.064,12.187-4.57c1.524,0,3.05,0,4.571,0.508c1.522,0,3.048,0.508,4.571,1.014v-14.217
		c-1.018,0-2.033-0.508-3.049-0.508s-2.031-0.508-3.047-0.508s-2.538,0-4.062,0c-3.049,0-6.094,0.508-9.142,2.031
		c-3.046,1.525-5.586,3.047-7.617,5.586c-2.54,2.541-4.063,5.078-5.587,8.125h-0.506v-13.203h-14.727v85.82h-0.509V2075.605z"/>
	<polygon points="1930.877,2075.605 1947.635,2075.605 1947.635,1972.52 1984.705,1972.52 1984.705,1957.793 1894.315,1957.793 
		1894.315,1972.52 1930.877,1972.52 	"/>
	<path d="M2052.752,2056.309c-1.017,1.016-2.539,1.521-4.57,2.537c-2.031,1.018-4.063,2.033-6.603,3.049
		c-2.538,1.016-5.077,1.521-7.617,2.031c-2.537,0.506-5.586,1.016-8.125,1.016c-4.062,0-7.617-0.508-10.663-2.031
		c-3.555-1.523-6.602-3.555-9.14-6.094c-2.54-2.539-4.571-5.586-6.094-9.141c-1.523-3.555-2.031-7.617-2.539-11.68h61.445
		c0-7.109-0.508-13.203-2.031-19.295c-1.523-6.094-3.555-11.174-6.603-15.236c-3.046-4.568-7.108-7.617-11.68-10.154
		c-5.077-2.539-11.171-3.557-18.279-3.557c-6.095,0-11.68,1.018-16.76,3.049c-5.077,2.031-9.139,5.078-12.693,9.141
		s-6.094,8.633-8.125,13.711s-3.048,11.174-3.048,17.773c0,7.109,1.017,13.203,2.538,19.295c2.033,5.586,4.571,10.664,8.126,14.729
		c3.554,4.063,8.125,7.109,13.711,9.648c5.585,2.031,12.188,3.555,19.805,3.555c4.571,0,8.634-0.508,12.188-1.016
		s6.094-1.523,8.632-2.031c2.54-1.016,4.571-1.523,6.604-2.539v-16.758h1.52V2056.309z M1997.4,2024.316
		c0.507-3.047,1.016-5.586,2.031-8.633c1.016-3.049,2.54-5.586,4.063-7.617c2.031-2.539,4.064-4.064,7.109-5.588
		c3.048-1.521,6.094-2.031,10.156-2.031c3.555,0,6.603,0.508,9.141,2.031c2.539,1.016,5.078,3.047,6.602,5.078
		c2.031,2.031,3.048,4.57,4.063,7.617c1.017,3.047,1.522,6.094,1.522,9.141H1997.4V2024.316z"/>
	<path d="M2136.032,1990.801c-1.522-0.508-3.554-1.016-5.585-1.523s-4.57-1.016-6.602-1.016c-2.539-0.508-4.57-0.508-7.109-0.508
		c-6.602,0-12.694,1.016-18.28,3.555c-5.585,2.033-10.156,5.586-13.711,9.65c-4.063,4.063-7.109,8.633-9.142,14.217
		c-2.031,5.588-3.046,11.68-3.046,18.283c0,6.092,1.015,12.186,3.046,17.264c2.032,5.586,5.078,10.158,9.142,14.221
		s8.633,7.617,13.711,9.648c5.586,2.539,11.171,3.555,17.774,3.555c2.031,0,4.063,0,6.092-0.508c2.03,0,4.57-0.506,7.11-1.016
		c2.538-0.506,4.569-1.016,6.6-2.031l-1.015-14.221c-1.522,1.018-3.555,2.033-5.586,2.541c-2.033,0.506-4.062,1.016-6.094,1.521
		c-2.031,0.508-4.063,0.508-5.586,0.508c-4.063,0-7.617-0.508-10.664-2.031c-3.046-1.016-6.093-3.047-8.124-5.078
		c-2.031-2.029-4.064-4.568-5.586-7.617c-1.522-2.539-2.54-5.586-3.047-8.633s-1.017-6.094-1.017-9.141
		c0-4.063,0.508-8.125,2.032-12.188c1.016-4.064,3.047-7.109,5.586-10.156c2.538-3.047,5.077-5.586,8.634-7.109
		c3.554-1.523,7.618-2.539,11.68-2.539c2.538,0,5.076,0.508,8.124,1.016c3.047,0.508,6.093,1.523,9.14,3.047L2136.032,1990.801
		L2136.032,1990.801z"/>
	<path d="M2153.806,2075.605h15.742v-40.117c0-5.078,0.509-10.158,1.524-14.221c1.016-4.57,2.539-8.125,4.57-11.17
		c2.031-3.049,5.077-5.59,8.125-7.111c3.047-1.523,7.108-2.537,11.68-2.537c4.568,0.506,8.124,1.521,11.171,4.063
		c2.539,2.539,4.571,5.586,5.586,10.156c1.017,4.568,1.522,10.156,1.522,16.758v44.688h15.742v-51.289
		c0-7.617-1.016-14.219-3.554-19.805c-2.031-5.586-6.093-9.648-10.663-12.695c-4.571-3.047-10.665-4.57-18.282-4.57
		c-6.094,0-11.679,1.016-16.248,3.555c-4.571,2.539-8.634,6.094-11.68,10.664h-0.508v-52.814h-15.742v126.445h1.014V2075.605z"/>
	<path d="M2256.385,2075.605h15.742v-40.117c0-5.078,0.508-10.158,1.523-14.221c1.016-4.57,2.539-8.125,4.569-11.17
		c2.032-3.049,5.079-5.59,8.126-7.111c3.047-1.523,7.109-2.537,11.678-2.537c4.571,0.506,8.125,1.521,11.174,4.063
		c2.537,2.539,4.568,5.586,5.586,10.156c1.014,4.568,1.521,10.156,1.521,16.758v44.688h15.743v-51.289
		c0-7.617-1.017-14.219-3.554-19.805c-2.033-5.586-6.095-9.648-10.664-12.695c-4.57-3.045-10.664-4.57-18.281-4.57
		c-4.063,0-8.125,0.508-11.68,2.031c-3.554,1.016-7.108,3.047-9.649,5.586c-3.047,2.539-5.078,5.078-6.601,8.635l0,0v-13.711
		h-15.234V2075.605L2256.385,2075.605z"/>
	<path d="M2352.869,2032.441c0,6.094,1.016,12.188,3.047,17.266c2.031,5.586,5.078,10.156,9.14,14.219
		c4.063,4.063,8.634,7.617,13.712,9.648c5.586,2.539,11.171,3.555,17.772,3.555c6.603,0,12.696-1.016,17.773-3.555
		c5.586-2.539,10.157-5.586,13.711-9.648c4.063-4.063,7.109-9.141,9.142-14.219c2.032-5.586,3.047-11.172,3.047-17.266
		c0-6.602-1.015-12.695-3.047-18.281s-5.078-10.156-9.142-14.219c-4.063-4.064-8.633-7.109-13.711-9.65
		c-5.585-2.031-11.171-3.555-17.773-3.555c-6.602,0-12.694,1.016-18.28,3.555c-5.585,2.031-10.156,5.586-13.711,9.65
		c-4.063,4.063-7.109,8.633-9.141,14.219C2353.885,2019.746,2352.869,2025.84,2352.869,2032.441L2352.869,2032.441z
		 M2370.135,2032.441c0-4.063,0.506-8.125,2.03-12.188c1.016-4.064,3.047-7.109,5.077-10.156c2.54-3.047,5.078-5.586,8.633-7.109
		c3.557-1.523,7.11-2.539,11.68-2.539c4.063,0,8.125,1.016,11.174,2.539c3.553,1.523,6.092,4.063,8.632,7.109
		c2.539,3.047,4.063,6.602,5.077,10.156c1.016,4.063,2.033,7.617,2.033,12.188c0,3.047-0.509,6.094-1.018,9.141
		c-0.506,3.047-1.522,6.092-3.047,8.633c-1.521,2.539-3.047,5.078-5.078,7.617c-2.031,2.033-4.568,4.064-7.617,5.078
		c-3.047,1.016-6.093,2.031-10.156,2.031c-3.555,0-7.107-0.508-10.154-2.031c-3.049-1.016-5.586-3.047-7.618-5.078
		c-2.031-2.029-4.063-4.57-5.079-7.617c-1.522-2.539-2.538-5.586-3.045-8.633
		C2370.135,2039.043,2370.135,2035.488,2370.135,2032.441L2370.135,2032.441z"/>
	<polygon points="2463.063,2075.605 2479.314,2075.605 2479.314,1948.652 2463.063,1948.652 	"/>
	<path d="M2501.657,2032.441c0,6.094,1.016,12.188,3.047,17.266c2.033,5.586,5.079,10.156,9.14,14.219
		c4.064,4.063,8.636,7.617,13.711,9.648c5.588,2.539,11.174,3.555,17.773,3.555c6.604,0,12.697-1.016,17.775-3.555
		c5.586-2.539,10.156-5.586,13.71-9.648c4.063-4.063,7.11-9.141,9.142-14.219c2.031-5.586,3.047-11.172,3.047-17.266
		c0-6.602-1.016-12.695-3.047-18.281c-2.032-5.586-5.078-10.156-9.142-14.219c-4.063-4.064-8.633-7.109-13.71-9.65
		c-5.586-2.031-11.172-3.555-17.775-3.555c-6.6,0-12.693,1.016-18.279,3.555c-5.585,2.031-10.155,5.586-13.711,9.65
		c-4.063,4.063-7.109,8.633-9.141,14.219C2502.673,2019.746,2501.657,2025.84,2501.657,2032.441L2501.657,2032.441z
		 M2518.415,2032.441c0-4.063,0.509-8.125,2.031-12.188c1.018-4.064,3.049-7.109,5.079-10.156c2.538-3.047,5.078-5.586,8.632-7.109
		c3.555-1.523,7.108-2.539,11.68-2.539c4.063,0,8.126,1.016,11.171,2.539c3.556,1.523,6.095,4.063,8.635,7.109
		c2.539,3.047,4.063,6.602,5.078,10.156c1.017,4.063,2.032,7.617,2.032,12.188c0,3.047-0.507,6.094-1.016,9.141
		c-0.507,3.047-1.524,6.092-3.048,8.633c-1.523,2.539-3.047,5.078-5.078,7.617c-2.032,2.033-4.572,4.064-7.617,5.078
		c-3.049,1.016-6.094,2.031-10.157,2.031c-3.554,0-7.108-0.508-10.156-2.031c-3.047-1.016-5.586-3.047-7.617-5.078
		c-2.031-2.029-4.063-4.57-5.077-7.617c-1.522-2.539-2.54-5.586-3.048-8.633C2518.924,2039.043,2518.415,2035.488,2518.415,2032.441
		L2518.415,2032.441z"/>
	<path d="M2685.993,1989.277h-14.727v12.695h-0.509c-1.521-3.047-3.554-5.586-6.092-8.125c-2.539-2.031-5.586-4.063-9.141-5.078
		c-3.554-1.016-8.125-2.031-13.203-2.031c-5.08,0-9.649,1.016-14.22,2.539c-4.063,1.523-7.616,4.063-10.663,7.109
		c-3.045,3.047-5.588,6.602-7.619,10.156c-2.031,4.063-3.554,8.125-4.568,12.693c-1.017,4.572-1.523,8.635-1.523,13.205
		c0,5.586,1.017,11.172,2.538,16.248c1.522,5.078,4.063,9.65,7.11,13.711c3.046,4.063,7.109,7.109,11.679,9.141
		s10.155,3.555,16.249,3.555c3.555,0,7.109-0.506,10.664-1.521c3.555-1.018,7.108-2.539,10.156-4.57s5.588-4.572,8.125-7.619h0.506
		v8.635c0,6.092-1.015,11.172-3.046,15.742s-5.077,7.617-9.14,10.156c-4.064,2.539-8.634,3.555-14.22,3.555
		c-3.048,0-5.587,0-8.125-0.508c-2.54-0.508-5.077-0.508-7.108-1.523c-2.539-0.506-5.078-1.521-7.618-2.537
		c-2.538-1.016-5.587-2.033-8.633-3.555l-1.524,14.725c4.57,1.523,8.633,3.047,12.189,3.557c3.555,1.016,6.601,1.521,9.648,2.031
		c3.047,0.506,6.092,0.506,9.141,0.506c10.156,0,18.789-1.521,25.39-5.078c6.603-3.045,11.68-8.123,14.726-14.219
		c3.048-6.094,4.571-13.711,4.571-22.344v-81.25H2685.993L2685.993,1989.277z M2644.861,2062.91c-3.557,0-7.11-1.016-10.156-2.539
		c-3.048-1.521-5.586-4.063-7.618-6.602c-2.031-3.047-3.556-6.094-4.569-9.648c-1.018-3.555-1.523-7.617-1.523-11.68
		c0-3.047,0.508-6.094,1.015-9.141c0.509-3.047,1.522-6.094,3.048-8.633c1.016-2.539,3.047-5.078,4.57-7.617
		c2.031-2.033,4.063-4.064,6.603-5.078c2.538-1.016,5.585-2.031,8.632-2.031c4.063,0,8.125,1.016,11.174,2.537
		c3.046,1.523,5.586,4.064,8.123,7.109c2.031,3.047,3.556,6.602,4.57,10.664c1.018,4.063,1.523,8.125,1.523,12.693
		c0,4.064-0.508,7.621-2.031,11.174c-1.017,3.555-3.048,6.602-5.078,9.141c-2.031,2.539-5.078,4.57-8.124,6.092
		C2651.971,2061.895,2648.922,2062.91,2644.861,2062.91L2644.861,2062.91z"/>
	<path d="M2714.431,2075.605h15.742v-86.328h-15.742V2075.605L2714.431,2075.605z M2731.188,1952.207h-17.772v17.773h17.772
		V1952.207L2731.188,1952.207z"/>
	<path d="M2824.625,2056.309c-1.016,1.016-2.538,1.521-4.569,2.537c-2.031,1.018-4.063,2.033-6.603,3.049
		c-2.539,1.016-5.077,1.521-7.617,2.031c-2.538,0.506-5.585,1.016-8.124,1.016c-4.063,0-7.618-0.508-10.664-2.031
		c-3.554-1.523-6.603-3.555-9.14-6.094c-2.538-2.539-4.571-5.586-6.094-9.141c-1.523-3.555-2.031-7.617-2.539-11.68h61.445
		c0-7.109-0.507-13.203-2.031-19.295c-1.525-6.094-3.556-11.174-6.603-15.236c-3.047-4.568-7.108-7.617-11.68-10.154
		c-5.077-2.539-11.171-3.557-18.28-3.557c-6.094,0-11.68,1.018-16.758,3.049s-9.141,5.078-12.695,9.141s-6.094,8.633-8.125,13.711
		s-3.047,11.174-3.047,17.773c0,7.109,1.016,13.203,2.539,19.295c2.032,5.586,4.57,10.664,8.124,14.729
		c3.556,4.063,8.125,7.109,13.711,9.648c5.587,2.031,12.188,3.555,19.806,3.555c4.569,0,8.633-0.508,12.188-1.016
		c3.554-0.508,6.091-1.523,8.633-2.031c2.54-1.016,4.571-1.523,6.601-2.539v-16.758h1.521V2056.309z M2769.781,2024.316
		c0.507-3.047,1.016-5.586,2.032-8.633c1.016-3.049,2.538-5.586,4.063-7.617c2.031-2.539,4.062-4.064,7.108-5.588
		c3.046-1.521,6.095-2.031,10.155-2.031c3.556,0,6.602,0.508,9.142,2.031c2.538,1.016,5.078,3.047,6.603,5.078
		c2.031,2.031,3.047,4.57,4.063,7.617s1.522,6.094,1.522,9.141h-44.688V2024.316z"/>
</g>
</svg>
